<svg version="1.2" baseProfile="tiny" xmlns="http://www.w3.org/2000/svg" width="14" height="14" viewBox="0 0 14 14"><path fill="#E50014" d="M3.547 4.422c-.391.312-.469.703-.469.703l-.312 1.875 1.516-1.781c.359-.406 0-.859 0-.859l1.875.078-2.188 2.406 1.156 3.078c.188.375.266.281.266.281.406 0 .344-.453.344-.453l.875-4.656c.094-.625-.219-.641-.219-.641l3.297-.016.141-.078-.266 1.422c-.11-.297-.422-.312-.422-.312l-1.188-.031-.25 1.297 1.156.031.141-.032-.25 1.329c-.141-.313-.437-.282-.437-.282h-.797l-.328 1.703c-.079.516.187.844.187.844l-3.906-.094-.828-2.546-.313 1.625c-.141.672.141.922.141.922h-2.047c.266-.125.406-.531.406-.531l.078-.25.802-4.188-.005-.282c.047-.64-.219-.625-.219-.625l2.063.063zm9.906-.156s-2.001-.43-3.438 1.031c0 0-1.641 1.781-.703 3.859 0 0 .406 1.109 1.672 1.25 0 0 .688.141 1.906-.234l.188-1.094s-.531.453-1.406.313c0 0-.625-.156-.938-.938 0 0-.516-1.359.359-2.656 0 0 .672-1.172 2.219-.328l.141-1.203z"/></svg>