<svg version="1.2" baseProfile="tiny" xmlns="http://www.w3.org/2000/svg" width="16" height="16" viewBox="0 0 16 16"><circle fill="#fff" cx="7.977" cy="7.977" r="7.852"/><g fill="#D61147"><path d="M15.201 7.79l-2.319.017.171.405 2.147.016.007-.251-.006-.187zM13.564 9.619h1.452l.09-.447h-1.69l.148.447zM13.991 10.749l.171.234v.321l-1.387 1.962h-8.722l-1.451-2.026v-.342l3.732-9.021 2.068 4.905 2.07-4.905 1.684 4.265 2.82.017c-.807-3.112-3.635-5.412-7-5.412-3.993 0-7.23 3.237-7.23 7.229s3.237 7.23 7.23 7.23c3.065 0 5.681-1.907 6.733-4.599l-.718-.007v.149zM12.69 7.572h2.505l-.029-.363h-2.519l.043.363zM13.842 10.259l.988.021.117-.384h-1.233l.128.363zM12.478 6.932l2.655.018-.072-.422h-2.775l.192.404zM13.308 8.937l1.831.016.043-.394-2 .016.126.362zM7.774 10.898l-2.047-4.712-2.015 4.905h8.028l-1.972-4.905z"/></g></svg>