<svg version="1.2" baseProfile="tiny" xmlns="http://www.w3.org/2000/svg" width="14" height="14" viewBox="0 0 14 14"><path fill="#fff" d="M6.416 10.223c-2.082 0-3.775-1.693-3.775-3.775s1.694-3.776 3.775-3.776 3.776 1.694 3.776 3.776c-.001 2.081-1.695 3.775-3.776 3.775zm0-4.551c-.428 0-.775.348-.775.776 0 .427.348.775.775.775s.776-.348.776-.775c-.001-.428-.349-.776-.776-.776z"/><path fill="#666" d="M6.416 4.672c.979 0 1.776.797 1.776 1.776s-.797 1.775-1.776 1.775-1.775-.796-1.775-1.775.796-1.776 1.775-1.776m0-1c-1.533 0-2.775 1.243-2.775 2.776 0 1.533 1.242 2.775 2.775 2.775 1.534 0 2.776-1.242 2.776-2.775-.001-1.533-1.242-2.776-2.776-2.776z"/></svg>