<svg version="1.2" baseProfile="tiny" xmlns="http://www.w3.org/2000/svg" width="12" height="12" viewBox="0 0 12 12"><path fill="#fff" d="M3.938 11.855c-1.396 0-3.041-.804-3.471-3.062l-.016-.19.072-5.275c.003-.299.147-.578.387-.755l3.034-2.241c.167-.124.367-.187.567-.187.15 0 .3.035.438.106.323.167.523.501.517.865l-.028 1.66c.562-.263 1.238-.468 1.978-.473l.112-.003c.504 0 2.239.145 3.39 2.007.048.074 1.248 2.022.211 4.113l-.02.037c-.107.192-1.081 1.897-2.444 2.413-.11.041-.225.062-.337.062-.281 0-.555-.125-.74-.352-.22-.271-.272-.634-.149-.95-.401.454-1.002.824-1.856.824l-.079-.003c-.21-.018-.443-.066-.679-.15.189.235.257.552.173.852-.105.378-.432.652-.822.692l-.238.01z"/><path fill="#003B77" d="M4.382.672l-.064 3.782s1.436-1.436 3.252-1.436c0 0 1.763-.143 2.894 1.687 0 0 1.064 1.687.182 3.464 0 0-.947 1.713-2.114 2.154 0 0 .623-.986.623-1.829l-1.923-.092s-.298 1.401-1.686 1.401c0 0-1.57-.129-1.57-1.57 0 0-.026-1.673 1.596-1.673 0 0 1.596.182 1.596 1.259l1.92.052s.118-2.816-3.477-3.244c0 0-2.673-.104-3.399 2.466 0 0-.493 2.568 1.7 4.229 0 0-2.388.246-2.906-2.479l.078-5.735 3.298-2.436z"/></svg>