<svg version="1.2" baseProfile="tiny" xmlns="http://www.w3.org/2000/svg" width="14" height="14" viewBox="0 0 14 14"><path fill="#fff" d="M3.544 13.912c-.714 0-1.294-.581-1.294-1.295v-2.059c0-.648.479-1.188 1.103-1.28v-7.895c0-.714.581-1.295 1.295-1.295h4.705c.714 0 1.295.581 1.295 1.295v7.896c.623.093 1.103.632 1.103 1.28v2.059c0 .714-.58 1.295-1.294 1.295h-6.913z"/><path fill="#666" d="M10.456 10.265h-.809v-8.882c0-.163-.132-.295-.295-.295h-4.705c-.163 0-.295.132-.295.295v8.882h-.808c-.162 0-.294.132-.294.294v2.059c0 .163.132.295.294.295h6.912c.162 0 .294-.132.294-.295v-2.059c0-.163-.132-.294-.294-.294z"/></svg>