<svg version="1.2" baseProfile="tiny" xmlns="http://www.w3.org/2000/svg" width="10" height="10" viewBox="0 0 10 10"><circle fill="#fff" cx="5" cy="5" r="5"/><path fill="#D9251C" d="M5 .298c-.301 0-.594.029-.879.083v.771c.283-.065.576-.102.879-.102 2.178 0 3.949 1.771 3.949 3.95 0 .825-.256 1.59-.691 2.223v-2.685c-.266-.862-.752-1.137-.752-1.137-1.159-.902-2.272 0-2.272 0-.651-.549-1.591-.345-1.591-.345v-2.558c-1.935.582-3.345 2.377-3.345 4.502 0 2.597 2.105 4.702 4.702 4.702.299 0 .592-.029.875-.083v-.77c-.281.063-.574.1-.875.1-2.178 0-3.95-1.771-3.95-3.949 0-1.049.413-2.002 1.084-2.709v4.927h1.458v-2.333c.458-.792.881-.077.881-.077v2.398h1.478v-2.386c.5-.741.885-.012.885-.012l.038 3.662c-.166.091-.34.17-.521.235v.798c1.937-.581 3.349-2.377 3.349-4.503 0-2.597-2.105-4.702-4.702-4.702z"/></svg>