<svg version="1.2" baseProfile="tiny" xmlns="http://www.w3.org/2000/svg" width="14" height="12" viewBox="0 0 14 12"><g fill="#fff"><path d="M7 10.139c-.135 0-.271-.031-.395-.093l-2.892-1.451c-.314-.158-.51-.488-.506-.847l.023-.192c-3.066-.95-3.191-3.045-3.192-3.358 0-3.864 6.267-4.007 6.981-4.011 2.771 0 4.769.614 5.941 1.824.98 1.012 1.004 2.074 1.004 2.193 0 .246-.098.48-.269.653-.168.171-.395.267-.633.267l-2.035-.015c-.494-.004-.895-.418-.895-.926 0-1.038-2.198-1.266-3.045-1.266h-.064c-2.038 0-2.78.503-3.042.803-.163.19-.193.375-.193.376l.005.102c0 .792 2.086 1.298 3.253 1.359.111.007.22.033.32.08l2.803 1.281c.317.145.526.465.533.824.009.356-.184.688-.495.847l-2.802 1.451c-.126.065-.265.099-.405.099zM6.978 11.813c-2.767 0-4.764-.613-5.937-1.823-.981-1.013-1.004-2.076-1.003-2.194.001-.245.098-.481.268-.652.169-.172.397-.268.634-.268l2.034.016c.495.003.895.417.895.925 0 .161 0 .651 1.138 1.001.818.252 1.732.266 1.907.266h.064c1.971 0 2.727-.477 3.001-.761.193-.199.225-.376.231-.44l-.002-.081c0-.79-2.086-1.297-3.253-1.358-.111-.007-.219-.033-.32-.08l-2.802-1.28c-.319-.146-.527-.467-.536-.824-.007-.357.185-.688.496-.849l2.802-1.451c.128-.065.267-.099.405-.099.136 0 .271.031.396.094l2.892 1.45c.315.158.513.487.506.847l-.022.192c3.067.95 3.192 3.048 3.192 3.356 0 3.864-6.266 4.01-6.981 4.012l-.005.001z"/></g><path fill="#019052" d="M7.024.824s-6.444.033-6.444 3.269c0 0-.095 2.63 4.98 3.022l-1.622.751 3.062 1.537 2.967-1.537-2.967-1.355s-4.351-.229-4.351-2.418c0 0-.255-2.336 4.375-2.336 0 0 4.249-.099 4.249 2.32l2.147.017c.001-.001.017-3.27-6.396-3.27zm-.04 6.527l1.178.603-1.138.598-1.145-.604 1.105-.597z"/><path fill="#026EAE" d="M6.977 11.175s6.444-.032 6.444-3.268c0 0 .096-2.63-4.981-3.022l1.623-.751-3.063-1.537-2.966 1.536 2.966 1.356s4.352.229 4.352 2.418c0 0 .254 2.336-4.375 2.336 0 0-4.249.101-4.249-2.32l-2.147-.016s-.016 3.268 6.396 3.268zm.04-6.527l-1.178-.601 1.138-.6 1.145.604-1.105.597z"/></svg>