<svg version="1.2" baseProfile="tiny" xmlns="http://www.w3.org/2000/svg" width="14" height="14" viewBox="0 0 14 14"><path fill="#fff" d="M4.025 13.634c-.653 0-1.188-.519-1.208-1.172l-.038-1.209c-.011-.327.112-.646.34-.879.228-.236.541-.369.868-.369h1.246v-1.649c-3.274-1.884-2.475-6.764-2.437-6.986.1-.58.604-1.004 1.192-1.004h6.067c.63 0 1.154.483 1.206 1.11.378 4.568-1.242 6.29-2.401 6.935l-.009 1.604 1.232.028c.657.017 1.182.553 1.182 1.21v1.172c0 .668-.541 1.209-1.21 1.209h-6.03z"/><path fill="#666" d="M3.988 1.576s-.834 4.836 2.456 6.009v3.63h-2.456l.038 1.21h6.029v-1.172l-2.419-.057.019-3.611s2.873-.301 2.4-6.009h-6.067z"/></svg>