<svg version="1.2" baseProfile="tiny" xmlns="http://www.w3.org/2000/svg" width="14" height="14" viewBox="0 0 14 14"><path fill="#fff" d="M2.836 13.446c-1.259 0-2.283-1.024-2.283-2.283v-8.327c0-1.259 1.024-2.283 2.283-2.283h8.328c1.259 0 2.283 1.024 2.283 2.283v8.327c0 1.259-1.024 2.283-2.283 2.283h-8.328zm4.091-5.504c.431 0 .838.055 1.219.146-.146-.765-.123-1.497.006-2.168-.39.092-.784.138-1.182.138-.338 0-.66-.034-.963-.092.104.716.048 1.421-.107 2.081.337-.069.68-.105 1.027-.105z"/><path fill="#017CC2" d="M11.164 1.553h-8.328c-.708 0-1.283.575-1.283 1.283v8.327c0 .709.575 1.283 1.283 1.283h8.328c.709 0 1.283-.574 1.283-1.283v-8.327c0-.709-.574-1.283-1.283-1.283zm-.762 8.892s-3.283-3.382-6.804 0c0 0 3.188-3.709.148-6.755l-.037-.037.037.037c.353.351 3.209 2.976 6.656-.135 0 0-3.053 3.245 0 6.89z"/></svg>