<svg version="1.2" baseProfile="tiny" xmlns="http://www.w3.org/2000/svg" width="14" height="10" viewBox="0 0 14 10"><path fill="#fff" d="M13.83 5c0 2.426-3.059 4.394-6.83 4.394-3.772 0-6.83-1.968-6.83-4.394 0-2.427 3.058-4.394 6.83-4.394.803 0 1.637.285 2.396.621 2.341 1.036 4.434 1.863 4.434 3.773z"/><path fill="#004187" d="M13.165 4.958c0-1.581-2.143-2.862-4.785-2.862-2.114 0-3.91.821-4.541 1.96v-.001c-.058.106-.09.221-.09.341 0 .284.179.537.458.702l2.425 1.399c.126.07.275.11.437.11.162 0 .312-.04.438-.106l2.3-1.331c.156-.09.254-.231.254-.387 0-.152-.094-.288-.239-.379l-.856-.495-1.897 1.095-1.434-.828c.555-.499 1.587-.835 2.769-.835 1.769 0 3.201.75 3.201 1.677-.039 1.432-2.141 2.544-4.695 2.476-2.557-.066-4.599-1.284-4.561-2.718h-.001c.018-1.892 2.498-3.402 5.538-3.372.272.002.536.017.796.043-.623-.23-1.404-.366-2.252-.366-.676 0-1.31.087-1.854.24-2.201.603-3.742 2.005-3.742 3.637 0 2.186 2.76 3.958 6.166 3.958s6.165-1.771 6.165-3.958z"/></svg>