<svg version="1.2" baseProfile="tiny" xmlns="http://www.w3.org/2000/svg" width="14" height="14" viewBox="0 0 14 14"><path fill="#07317A" d="M0 0h14v14h-14z"/><path fill="#fff" d="M13.751 5.854h.002l-.002-.005c-.548-3.234-3.36-5.699-6.751-5.699-3.782 0-6.85 3.068-6.85 6.85 0 3.783 3.067 6.85 6.85 6.85 3.783 0 6.85-3.066 6.85-6.85 0-.391-.035-.773-.099-1.146zm-11.881 1.146c0-2.829 2.302-5.13 5.13-5.13.983 0 1.901.278 2.684.759-.479-.071-.786-.043-.786-.043-4.405 0-4.208 4.414-4.208 4.414v4.579c-1.671-.847-2.82-2.58-2.82-4.579zm5.13 5.131l-.319-.013.05-3.587h2.937v-1.719l-2.972-.053c0-2.472 2.685-2.579 2.685-2.579 1.818 0 2.464 1.267 2.603 1.602.095.39.147.798.147 1.218 0 2.829-2.302 5.131-5.131 5.131z"/></svg>