<svg version="1.2" baseProfile="tiny" xmlns="http://www.w3.org/2000/svg" width="14" height="10" viewBox="0 0 14 10"><path fill="#fff" d="M2.962 9.82c-.468 0-.813-.188-.976-.299l-1.159-.71c-.348-.222-.702-.633-.702-1.153v-3.322c0-1.394 1.43-2.886 3.558-2.886 1.101 0 1.898.33 2.453.713.649-.453 1.455-.698 2.323-.698.439 0 .838.051 1.196.142v-.259c0-.759.715-1.168 1.382-1.168.464 0 .807.181.97.289l1.165.717c.353.23.7.64.7 1.155l.003 3.269c0 1.396-1.431 2.887-3.56 2.887-1.093 0-1.887-.327-2.441-.709-.64.439-1.413.682-2.25.701h-.114c-.428 0-.817-.052-1.166-.144v.307c0 .204-.105.513-.247.683-.239.286-.707.485-1.135.485z"/><path fill="#00386F" d="M8.73 4.095l.034-.026c.725-.472 1.594-.429 1.882-.398-.118-.271-.639-1.175-2.188-1.175-.876 0-1.447.372-1.771.685-.385.371-.479.807-.5 1.034-.124 1.077-.845 1.594-.926 1.652-.802.532-1.623.461-1.917.41.141.29.707 1.214 2.244 1.182.613-.015 1.153-.205 1.608-.568.504-.407.612-1.036.632-1.222.109-.922.663-1.407.902-1.574m3.856-1.754c0-.209-.197-.338-.197-.338l-1.205-.741s-.242-.163-.242.086l-.002 2.969.005.078c0 .224-.065.891-.795 1.392-.872.598-1.806.544-2.133.501.17.281.825 1.18 2.299 1.18 1.358 0 2.272-.96 2.272-1.856l-.002-3.271m-8.737 1.819c.873-.596 1.807-.543 2.136-.5-.17-.282-.827-1.18-2.302-1.18-1.359 0-2.271.959-2.271 1.856v3.322c0 .209.198.336.198.336l1.207.743s.241.162.241-.085v-3.022l-.002-.077c-.001-.224.067-.891.793-1.393"/></svg>