<svg version="1.2" baseProfile="tiny" xmlns="http://www.w3.org/2000/svg" width="14" height="14" viewBox="0 0 14 14"><g fill="#fff"><path d="M6.969 13.9c-3.308 0-4.923-1.791-5.696-3.295-.819-1.59-.867-3.167-.869-3.232v-.014c0-2.677 1.356-4.259 2.494-5.114 1.125-.846 2.245-1.156 2.45-1.208.406-.14.797-.211 1.161-.211.673 0 1.043.243 1.111.291l.053.043 4.426 4.153c.112.105.174.252.17.405-.005.153-.074.297-.193.395l-.859.717h1.847c.293 0 .532.239.532.533 0 3.352-1.818 4.958-3.342 5.714-1.616.804-3.215.823-3.282.823h-.003zm.031-4.325l2.379-2.328-2.392-2.121-2.26 2.235 2.273 2.214zM12.008 5.742c-.136 0-.269-.053-.368-.148l-3.934-3.759c-.298-.224-.681-.258-.887-.258l-.161.008-.069.004c-.227 0-.434-.145-.508-.364-.081-.241.018-.506.24-.633.57-.326 1.201-.492 1.877-.492 1.126 0 1.989.468 2.024.487l.116.086 3.098 3.031c.208.203.214.536.016.748l-1.056 1.122c-.098.104-.232.165-.374.168h-.014z"/></g><g fill="#025CAE"><path d="M11.734 5.703l-4.428-4.153s-.59-.428-1.806 0c0 0-4.562 1.054-4.562 5.809 0 0 .15 6.008 6.031 6.008 0 0 6.095-.045 6.095-6.004h-2.966l-.16.085-2.938 2.874-3.035-2.959 3.004-2.969 3.066 2.724 1.699-1.415zM12.008 5.208l1.056-1.122-3.099-3.031s-1.723-.948-3.379 0c0 0 .841-.12 1.47.374l3.952 3.779z"/></g></svg>