<svg version="1.2" baseProfile="tiny" xmlns="http://www.w3.org/2000/svg" width="14" height="14" viewBox="0 0 14 14"><circle fill="#fff" cx="7.013" cy="7.012" r="7.013"/><g fill="#009883"><path d="M6.27 1.223l.003 3.254c0 .232.234.287.234.287l.856-.003c.17 0 .22-.237.22-.237l.005-3.265.002-.158c-.19-.018-.383-.027-.578-.027-.251 0-.498.015-.741.045l-.001.104zM8.264 1.206l-.002.083-.01 3.536c0 .143-.2.209-.2.209h-.779c-.2.052-.211.218-.211.218l.003 1.839c.004-.204.201-.213.201-.213l1.424.006c.208 0 .222-.215.222-.215l.007-3.825c2.658 1.27 2.637 4.079 2.637 4.079-.148 4.213-3.948 4.665-3.948 4.665l-.011-2.594 1.118.002c.156 0 .2-.198.2-.198v-1.867c-.039.173-.225.215-.225.215l-1.386-.006c-.2 0-.237.225-.237.225v1.628h-.278v-1.624c0-.203-.231-.214-.231-.214l-1.389-.01c-.148 0-.213-.222-.213-.222l-.004 1.875c0 .139.194.195.194.195l1.124.016v2.579c-4.127-.782-3.952-4.665-3.952-4.665.04-2.89 2.623-4.079 2.623-4.079l.015 3.823c0 .169.209.207.209.207l1.396.007c.201.005.24.207.24.207l-.011-1.815c0-.198-.204-.226-.204-.226l-.746-.005c-.201 0-.234-.232-.234-.232l-.002-3.456.001-.112c-2.6.632-4.531 2.975-4.531 5.77 0 3.28 2.659 5.94 5.938 5.94 3.278 0 5.938-2.66 5.938-5.94 0-2.851-2.006-5.232-4.686-5.806z"/></g></svg>