<svg version="1.2" baseProfile="tiny" xmlns="http://www.w3.org/2000/svg" width="12" height="12" viewBox="0 0 12 12"><circle fill="#fff" cx="5.949" cy="5.949" r="5.949"/><g fill="#C40008"><path d="M5.973 1.237c2.62 0 4.75 2.132 4.75 4.752s-2.131 4.751-4.75 4.751c-2.62 0-4.752-2.131-4.752-4.751s2.132-4.752 4.752-4.752m0-.912c-3.129 0-5.665 2.536-5.665 5.665 0 3.128 2.536 5.664 5.665 5.664 3.127 0 5.663-2.536 5.663-5.664 0-3.129-2.535-5.665-5.663-5.665zM5.75 3.852v-.921h-2.835v2.597h1.808v.921h-1.808v2.597h2.835v-.918h-1.911v-.798h1.734v-2.68h-1.734v-.798zM7.22 6.449v-.921h1.809v-2.597h-2.833v.921h1.909v.798h-1.734v2.68h1.734v.798h-1.909v.918h2.833v-2.597z"/></g></svg>