<svg version="1.2" baseProfile="tiny" xmlns="http://www.w3.org/2000/svg" width="12" height="14" viewBox="0 0 12 14"><path fill="#011D56" d="M4.867 13.777c-.588 0-1.064-.478-1.064-1.065v-1.063h-1.827c-.588 0-1.064-.475-1.064-1.063v-1.724c0-.167.039-.325.108-.467-.069-.142-.108-.3-.108-.468v-1.722c0-.587.476-1.064 1.064-1.064h.323l-1.668-3.384c-.163-.33-.143-.72.051-1.033.194-.312.536-.502.904-.502h2.4c.412 0 .788.239.963.612l1.021 2.177 1.047-2.185c.177-.369.55-.604.959-.604h2.401c.368 0 .709.19.905.504.193.314.212.705.046 1.036l-1.685 3.379h.346c.588 0 1.063.477 1.063 1.064v1.723c0 .168-.039.326-.108.468.069.142.108.3.108.467v1.725c0 .588-.476 1.063-1.063 1.063h-1.868v1.063c0 .588-.477 1.065-1.063 1.065h-2.191z"/><path fill="#668EE9" d="M4.813 10.762h-3.034v-1.809h3.033v-.98h-3.033v-1.807h2.135l-2.543-5.159h2.519l1.633 3.483c.208.436.355.82.442 1.153.103-.36.25-.744.441-1.153l1.668-3.483h2.518l-2.574 5.159h2.167v1.807h-3.075v.98h3.074v1.809h-3.074v2.232h-2.297v-2.232z"/></svg>