<svg version="1.2" baseProfile="tiny" xmlns="http://www.w3.org/2000/svg" width="14" height="14" viewBox="0 0 14 14"><path fill="#666" d="M7.521 3.354v4.428c0 .288-.233.521-.521.521s-.521-.234-.521-.521v-4.428c0-.862-.701-1.563-1.563-1.563h-3.646v9.638h4.055c.152 0 .297.065.396.182.326.381.792.6 1.279.6s.954-.219 1.279-.6c.099-.116.244-.182.396-.182h4.054v-9.638h-3.646c-.861 0-1.562.701-1.562 1.563z"/><path fill="#fff" d="M12.729.749h-3.646c-.851 0-1.607.41-2.083 1.043-.476-.633-1.232-1.043-2.083-1.043h-3.647c-.574 0-1.042.467-1.042 1.042v9.638c0 .574.467 1.041 1.042 1.041h3.83c.512.5 1.192.782 1.901.782.708 0 1.389-.282 1.9-.782h3.829c.575 0 1.043-.466 1.043-1.041v-9.638c-.001-.575-.468-1.042-1.044-1.042zm0 10.68h-4.053c-.152 0-.298.065-.396.182-.326.381-.792.6-1.279.6s-.954-.219-1.279-.6c-.099-.116-.244-.182-.396-.182h-4.056v-9.638h3.647c.861 0 1.563.701 1.563 1.563v4.428c0 .288.233.521.521.521s.521-.233.521-.521v-4.428c0-.862.701-1.563 1.562-1.563h3.646v9.638z"/></svg>