<svg version="1.2" baseProfile="tiny" xmlns="http://www.w3.org/2000/svg" width="14" height="14" viewBox="0 0 14 14"><path fill="#666" d="M10.924 9.356v-.68l.013-.118c0-.471.379-.851.851-.851.209 0 .379.08.511.223.131.157.184.38.156.616-.183 1.215-1.046 1.856-1.688 2.132.104-.418.157-.85.157-1.322zm-.812-2.472v2.473c0 .642-.118 1.203-.354 1.701l-.014.027-.026.064c-.209.392-.497.747-.862 1.021-.551.418-1.113.575-1.256.616h-3.756c-.13-.041-.575-.198-1.034-.602-.313-.288-.576-.644-.759-1.05-.235-.521-.353-1.123-.353-1.816v-2.434h8.414zm-2.054-3.533c-.132-.131-.209-.223-.236-.354-.04-.249.012-.51.17-.746.131-.196.275-.314.275-.314.169-.131.21-.393.078-.563-.065-.091-.157-.143-.275-.156-.104-.013-.208.013-.301.078-.038.026-.955.746-.758 1.858.065.353.288.589.458.758.183.184.249.263.222.458-.039.263-.379.616-.536.76-.17.144-.183.406-.04.576.079.091.183.144.314.144.093 0 .197-.04.262-.105.119-.104.706-.641.798-1.243s-.209-.916-.431-1.151zm-2.133-.354c-.039-.249.013-.51.17-.746.131-.196.274-.314.274-.314.171-.131.21-.393.08-.563-.067-.091-.158-.143-.276-.156-.104-.013-.209.013-.3.079-.04.026-.956.746-.76 1.858.08.353.302.589.458.758.183.184.249.262.222.458-.039.262-.378.615-.536.759-.17.144-.183.406-.04.576.08.091.184.144.315.144.092 0 .196-.04.261-.105.119-.104.707-.641.799-1.243.092-.602-.21-.916-.431-1.151-.145-.144-.21-.223-.236-.354zm-1.91 0c-.04-.249.013-.51.169-.746.131-.196.275-.314.275-.314.169-.131.209-.393.078-.563-.065-.091-.157-.143-.274-.156-.105-.013-.21.013-.301.078-.039.026-.955.746-.759 1.858.092.353.314.589.472.758.183.184.249.263.222.458-.04.263-.38.616-.537.76-.17.144-.183.406-.039.576.078.091.183.144.301.144.092 0 .197-.04.262-.105.117-.104.706-.641.798-1.243s-.21-.916-.432-1.151c-.131-.131-.209-.223-.235-.354z"/><path fill="#fff" d="M8.019 1.214l.052.003c.118.013.21.065.275.156.132.171.091.433-.078.563 0 0-.145.118-.275.314-.158.236-.209.497-.17.746.026.132.103.224.235.355.222.235.523.549.431 1.151s-.679 1.139-.798 1.243c-.066.066-.169.105-.262.105-.13 0-.235-.053-.313-.144-.144-.17-.13-.432.04-.576.157-.145.497-.498.536-.759.027-.196-.039-.274-.222-.458-.172-.17-.394-.406-.459-.759-.197-1.112.72-1.832.758-1.858.077-.054.163-.082.25-.082m-1.898 0l.052.003c.118.013.209.065.276.156.13.171.091.433-.08.563 0 0-.143.118-.274.314-.157.236-.209.497-.17.746.026.131.091.21.236.354.221.236.523.55.431 1.152-.092.602-.68 1.139-.799 1.243-.064.066-.169.105-.261.105-.131 0-.235-.053-.314-.144-.143-.17-.13-.432.04-.576.158-.145.497-.498.536-.759.026-.196-.04-.274-.223-.458-.156-.17-.379-.406-.458-.759-.196-1.112.72-1.832.76-1.858.075-.054.161-.082.248-.082m-1.911 0l.052.003c.118.014.21.066.276.157.131.171.091.433-.078.563 0 0-.145.118-.275.314-.158.236-.21.498-.17.746.026.131.104.223.235.354.222.235.523.549.432 1.151s-.68 1.139-.798 1.243c-.066.066-.171.105-.262.105-.118 0-.222-.053-.301-.144-.144-.17-.131-.432.039-.576.157-.145.497-.498.537-.759.026-.196-.04-.274-.222-.458-.158-.17-.38-.406-.472-.759-.196-1.112.72-1.832.759-1.858.076-.054.162-.082.248-.082m5.902 5.67v2.473c0 .642-.118 1.203-.354 1.701l-.014.027-.026.064c-.209.392-.497.747-.862 1.021-.551.418-1.113.575-1.256.616h-3.756c-.13-.041-.575-.198-1.034-.602-.313-.288-.576-.644-.759-1.05-.235-.521-.353-1.123-.353-1.816v-2.434h8.414m1.675.824c.209 0 .379.08.511.223.131.157.184.38.156.616-.183 1.215-1.046 1.856-1.688 2.132.105-.419.158-.851.158-1.322v-.68l.013-.118c0-.471.378-.851.85-.851m-3.768-7.397c-.274 0-.541.085-.77.247l-.184.145c-.198-.209-.478-.348-.791-.383l-.153-.009c-.277 0-.545.087-.773.25l-.187.147c-.197-.21-.478-.353-.797-.388l-.154-.009c-.277 0-.545.087-.774.25-.354.234-1.381 1.284-1.124 2.75l.006.036.01.035c.113.439.345.76.529.975l-.109.108c-.431.364-.55.994-.313 1.515h-1.641v3.338c0 .814.146 1.552.433 2.188.23.511.557.963.972 1.344.588.519 1.159.73 1.377.799l.13.04h4.019l.121-.034c.582-.165 1.104-.422 1.557-.767.377-.281.701-.638.964-1.056l.755-.324c.579-.248 1.953-1.02 2.227-2.828.06-.525-.069-.985-.358-1.331-.327-.362-.746-.546-1.203-.546-.277 0-.538.064-.771.179v-1.002h-2.297c.281-.336.58-.804.663-1.342.153-1.007-.368-1.59-.642-1.88l.003-.003.106-.128c.238-.181.414-.484.463-.827.051-.347-.041-.703-.25-.976-.2-.277-.522-.463-.891-.504l-.153-.009z"/></svg>