<svg version="1.2" baseProfile="tiny" xmlns="http://www.w3.org/2000/svg" width="14" height="14" viewBox="0 0 14 14">
  <path fill="#FFF" d="M11.967 3.026V7.99h-.978l.02 1.917s-.06 1.19.957 2.09h-.938s-1.037-.076-.998-1.992l-.02-.978-.997-.058-.02-.96-.997-.02v.998H7v1.017s.12 1.974-.996 1.993H4.988s.958-.8 1.017-1.993l.04-1.994-1.018-.02-.058-1.973-1.585-.04L3.365 7H1.98V4.004h1.427V5h1.603V3.027h6.96m0-1h-6.96c-.552 0-1 .448-1 1v.18c-.168-.127-.377-.202-.603-.202H1.978c-.552 0-1 .448-1 1V7c0 .552.447 1 1 1h1.388c.25 0 .48-.09.654-.243l.008.264c.016.534.447.96.98.972h.016l-.02.994c-.034.693-.652 1.24-.658 1.245-.323.272-.442.714-.3 1.11s.52.658.94.658h1.018c.52-.01.964-.208 1.305-.575.714-.773.707-2.082.69-2.435.19 0 .37-.055.522-.148.13.073.275.118.433.127l.075.005v.053c-.057 2.79 1.843 2.965 1.924 2.97.024.003.05.004.074.004h.938c.415 0 .788-.258.935-.647.148-.39.04-.828-.27-1.104-.626-.555-.622-1.28-.622-1.31l-.01-.95c.538-.017.97-.458.97-1V3.027c0-.552-.448-1-1-1z"/>
  <path fill="#666" d="M1.978 4.004h1.427V5h1.603V3.027h6.96V7.99h-.98l.02 1.917s-.057 1.19.96 2.09h-.94s-1.035-.076-.996-1.992l-.02-.978-.997-.058-.02-.96-.997-.02v.998H7v1.017s.12 1.974-.996 1.993H4.988s.958-.8 1.017-1.993l.04-1.994-1.018-.02-.058-1.973-1.585-.04L3.365 7H1.98V4.004z"/>
</svg>
