<svg version="1.2" baseProfile="tiny" xmlns="http://www.w3.org/2000/svg" width="14" height="14" viewBox="0 0 14 14"><path fill="#FFF" d="M12.48 1.18h-10.95c-.19 0-.346.155-.346.346v10.95c0 .19.155.347.346.347h10.95c.19 0 .347-.156.347-.347v-10.95c0-.19-.157-.346-.348-.346z"/><path fill="#A6C7F3" d="M12.48.017h-10.95c-.832 0-1.51.677-1.51 1.51v10.95c0 .83.678 1.508 1.51 1.508h10.95c.83 0 1.51-.678 1.51-1.51v-10.95c-.002-.83-.68-1.505-1.51-1.505zm.346 12.46c0 .19-.156.346-.347.346h-10.949c-.19 0-.346-.156-.346-.347v-10.95c0-.19.155-.346.346-.346h10.95c.19 0 .347.155.347.346v10.95z"/><path fill="#006CFF" d="M11.55 4.206l-.18-1.126c-.127-1.054-1.163-1.2-1.163-1.2-1.42-.545-4.47-.39-4.47-.39-1.018.017-2.11.39-2.11.39-.853.2-.87.672-.87.672-.274.564-.328 1.654-.328 1.654-.366 0-.48.473-.48.473v1.231c0 .236.33.436.33.436v2.18c-.017.325.11 2.344.11 2.344.055.364.38.38.38.38l.51.038v.8c.127.435.654.44.654.44.544.012.67-.532.67-.532v-.744l5 .02.018.836c.255.526.673.41.673.41.69 0 .636-.52.636-.52l.02-.735.27-.01c.31.072.42-.236.42-.236l.018-4.687c.435-.2.394-.474.394-.474v-1.034c0-.618-.504-.618-.504-.618zm-7.086-1.69h4.996v.727h-4.995v-.727zm.09 7.922c-.4 0-.726-.325-.726-.727s.326-.724.727-.724c.402 0 .727.325.727.727s-.325.728-.727.728zm4.87 0c-.4 0-.727-.325-.727-.727s.325-.724.728-.724.728.325.728.727-.326.728-.728.728zm.927-3.16h-6.793v-3.563h6.795v3.56z"/></svg>