<svg version="1.2" baseProfile="tiny" xmlns="http://www.w3.org/2000/svg" width="14" height="14" viewBox="0 0 14 14"><path fill="#666" d="M9.791 5.775v.344c0 .19-.195.344-.437.344s-.437-.153-.437-.344v-.344h-3.846v.344c0 .19-.195.344-.437.344s-.437-.153-.437-.344v-.344h-1.021l-.441 6.062h8.518l-.44-6.062h-1.022z"/><path fill="#fff" d="M9.406 3.294c0-1.048-1.082-1.9-2.412-1.9-1.329 0-2.412.853-2.412 1.9v.849h4.824v-.849z"/><path fill="#666" d="M13.453 12.927l-.609-8.377c-.016-.228-.256-.406-.547-.406h-1.796v-.85c0-1.524-1.573-2.763-3.507-2.763-1.933 0-3.506 1.239-3.506 2.763v.849h-1.798c-.29 0-.529.178-.546.406l-.615 8.463c-.009.118.044.235.148.32.103.087.247.136.398.136h11.85c.302 0 .548-.192.548-.431l-.02-.11zm-8.87-9.633c0-1.048 1.083-1.9 2.412-1.9 1.33 0 2.412.853 2.412 1.9v.849h-4.824v-.849zm-2.928 9.312l.553-7.601h1.28v.431c0 .239.245.431.547.431s.547-.192.547-.431v-.431h4.824v.431c0 .239.244.431.547.431s.548-.192.548-.431v-.431h1.28l.553 7.601h-10.679z"/></svg>