<svg baseProfile="tiny" xmlns="http://www.w3.org/2000/svg" width="14" height="14" viewBox="0 0 14 14"><g fill="#F00"><path d="M13.71 5.773l-2.335-2.146c-.167-.188-.73-.156-.73-.156-.02-.697-.166-.78-.166-.78l-2.355-2.231c-.479-.48-1.124-.02-1.124-.02-.354-.397-1.203 0-1.203 0l-1.61 1.53c-1.062.923-.843 1.5-.843 1.5-.516-.046-.938.235-.938.235l-2.11 2.095c-.576.654-.061 1.2-.061 1.2-.484.64 0 1.158 0 1.158l2.234 2.14c.375.298.856.267.856.267-.033.75.426 1.015.426 1.015l2.063 1.97c.375.42 1.187.077 1.187.077.672.313 1.14-.094 1.14-.094l2.126-2c.578-.516.39-1.016.39-1.016.532.14 1.017-.313 1.017-.313l1.906-1.86c.75-.655.233-1.343.233-1.343.453-.717-.104-1.227-.104-1.227zm-.714 2.455l-1.736 1.692s-.442.414-.927.286c0 0 .17.456-.355.926l-1.938 1.822s-.427.372-1.04.086c0 0-.74.313-1.083-.07l-1.88-1.795s-.417-.242-.387-.926c0 0-.438.028-.78-.243l-2.037-1.949s-.44-.475 0-1.057c0 0-.47-.496.058-1.094l1.923-1.91s.385-.255.855-.212c0 0-.2-.527.77-1.368l1.466-1.396s.773-.36 1.095 0c0 0 .59-.417 1.026.02l2.146 2.03s.135.077.152.713c0 0 .513-.028.665.142l2.126 1.957s.508.464.095 1.12c0 0 .47.626-.214 1.226zM5.526 5.235v-2.515h2.93v2.515l1.294-1.257s.432-.367 0-.854l-1.88-1.796s-.317-.43-.863.158c0 0-.388-.545-.848-.2l-1.852 1.81s-.532.473 0 .918l1.22 1.22zm0 3.525v2.515h2.93v-2.515l1.292 1.258s.432.366 0 .854l-1.88 1.795s-.317.432-.863-.158c0 0-.388.544-.848.2l-1.85-1.81s-.533-.474 0-.92l1.22-1.22zM5.242 8.477h-2.512v-2.932h2.513l-1.258-1.29s-.367-.433-.854 0l-1.795 1.88s-.43.316.158.862c0 0-.545.388-.2.848l1.81 1.852s.473.532.918 0l1.222-1.22zm3.526 0h2.514v-2.932h-2.514l1.258-1.29s.365-.433.854 0l1.795 1.88s.432.316-.158.862c0 0 .545.388.2.848l-1.807 1.852s-.476.532-.92 0l-1.222-1.22z"/></g></svg>