<svg version="1.2" baseProfile="tiny" xmlns="http://www.w3.org/2000/svg" width="14" height="14" viewBox="0 0 14 14"><g fill-rule="evenodd"><path fill="#fff" d="M1.831 12.432c-.317 0-.607-.055-.861-.161-.275-.114-.504-.282-.674-.499-.187-.24-.289-.53-.297-.842-.008-.288.067-.582.222-.874l.587-1.094c.218-.406.452-.832.7-1.275l.742-1.343c.251-.461.5-.906.743-1.336.552-1.003 1.13-2.034 1.732-3.086.125-.218.357-.353.608-.353h.008c.254.003.486.144.607.367l2.72 5.025 1.099-2.142c.118-.23.354-.376.612-.38h.011c.255 0 .489.138.612.361.341.617.677 1.232 1.01 1.848l.445.818 1.317 2.475c.137.268.212.54.226.815.017.293-.041.571-.171.823-.137.261-.342.47-.613.626-.269.152-.586.228-.947.228h-10.438z"/><path fill="#666" d="M.838 10.384c-.099.186-.145.363-.141.527s.054.307.148.428c.094.119.225.216.396.286.169.071.367.106.59.106h10.438c.241 0 .44-.045.598-.134.154-.089.269-.202.341-.34.071-.139.104-.294.094-.468-.009-.173-.057-.35-.147-.527l-.409-.774-.45-.84-.455-.855-.442-.814c-.332-.614-.667-1.227-1.007-1.842l-1.707 3.324-3.353-6.192c-.6 1.05-1.176 2.077-1.73 3.083-.242.427-.488.87-.738 1.328l-.745 1.348c-.246.44-.478.863-.697 1.268l-.584 1.088z"/></g></svg>