<svg version="1.2" baseProfile="tiny" xmlns="http://www.w3.org/2000/svg" width="14" height="14" viewBox="0 0 14 14"><path fill="#9BC6FF" d="M.841.838v12.229h12.229v-12.229h-12.229zm11.334 11.334h-10.438v-10.439h10.438v10.439z"/><path fill="#009347" d="M7.733 4.717l.247-1.3 3.681-.023.168-1.005h-4.251l-.266 1.313h-2.126l-.517 2.781-2.2.004-.387 2.333 2.146.012-.505 2.685h4.854l.504-2.674 1.537-.022.176-1.02-2.135-.022-.484 2.73h-3.655l.07-.306h3.177l.542-2.684 2.578-.012.223-1.021-3.271.013-.493 2.672h-2.589l.069-.339h2.134l.433-2.349h-2.123l.083-.36 3.131-.012.328-1.383h2.59l.166-1.021-3.177-.01-.259 1.395-2.626-.011.094-.34 2.133-.024zm-3.282 3.084h-1.548v-.27h1.548v.27zm2.146-.27v.27h-1.55v-.27h1.5499999999999998z"/></svg>