<svg version="1.2" baseProfile="tiny" xmlns="http://www.w3.org/2000/svg" width="14" height="14" viewBox="0 0 14 14"><path fill="#fff" d="M1.99 13.979c-.553 0-1-.448-1-1v-8.979c0-.292.128-.57.35-.76l3.479-2.979c.188-.16.419-.24.65-.24.23 0 .462.08.648.239l3.521 3c.223.189.35.467.352.759l.01 2.96 2.02.021c.549.006.99.452.99 1v4.979c0 .552-.447 1-1 1h-10.02z"/><path fill="#666" d="M9.99 7.979v1l1.02.021-.02 3.021-1.98-.042-.02-7.958-3.521-3-3.479 2.979v8.979h10.02v-4.979l-2.02-.021zm-6.021 4.004h-.984v-.984h.984v.984zm0-1.984h-.984v-.984h.984v.984zm0-2.016h-.984v-.984h.984v.984zm0-1.999h-.984v-.984h.984v.984zm2 5.999h-.984v-.984h.984v.984zm0-1.984h-.984v-.984h.984v.984zm0-2.016h-.984v-.984h.984v.984zm0-1.999h-.984v-.984h.984v.984zm2 5.999h-.984v-.984h.984v.984zm0-1.984h-.984v-.984h.984v.984zm0-2.016h-.984v-.984h.984v.984zm0-1.999h-.984v-.984h.984v.984z"/></svg>