<svg version="1.2" baseProfile="tiny" xmlns="http://www.w3.org/2000/svg" width="14" height="14" viewBox="0 0 14 14"><path fill="#666" d="M11.987 11.016v.007h-1.993v-2.014h1.009v1.005h.984v.002h.019v-2.016h-2.006v-6.029h-7.005v10.046h9.011v-1.002h-.019zm-5.982-.989h-1.005v.984h-1.009v-1.992h2.014v1.008zm0-3.015h-1.005v.985h-1.009v-1.994h2.014v1.009zm0-2.996h-1.005v.984h-1.009v-1.993h2.014v1.009zm3.009 6.011h-1.005v.984h-1.009v-1.992h2.014v1.008zm0-3.015h-1.005v.985h-1.009v-1.994h2.014v1.009zm0-2.996h-1.005v.984h-1.009v-1.993h2.014v1.009z"/></svg>