<?xml version="1.0" encoding="utf-8"?>
<!-- Generator: Adobe Illustrator 16.0.0, SVG Export Plug-In . SVG Version: 6.00 Build 0)  -->
<svg version="1.2" baseProfile="tiny" id="待删" xmlns="http://www.w3.org/2000/svg" xmlns:xlink="http://www.w3.org/1999/xlink"
	 x="0px" y="0px" width="14px" height="14px" viewBox="0 0 14 14" xml:space="preserve">
<g>
	<g>
		<path fill="none" d="M5.275,8.628l1.066-0.716C6.275,7.835,6.21,7.757,6.146,7.679L5.275,8.628z"/>
		<path fill="#FFFFFF" d="M12.715,2.34c-0.849-1.011-2.068-1.592-3.345-1.592c-0.935,0-1.833,0.324-2.536,0.913
			C5.878,2.464,5.373,3.695,5.449,4.98l-4.905,5.348c-0.194,0.21-0.304,0.484-0.309,0.77c-0.019,1.146,0.677,1.966,1.815,2.141
			c0.06,0.01,0.119,0.014,0.178,0.014c0.23,0,0.458-0.068,0.652-0.198l5.978-4.015C8.869,9.042,8.878,9.05,8.89,9.053
			C9.2,9.125,9.517,9.161,9.831,9.161c0.932,0,1.832-0.325,2.533-0.912c0.846-0.71,1.342-1.725,1.396-2.859
			C13.813,4.29,13.442,3.207,12.715,2.34z M5.275,8.628l0.871-0.949C6.21,7.757,6.275,7.835,6.342,7.912L5.275,8.628z"/>
	</g>
	<g>
		<path fill-rule="evenodd" fill="#666666" d="M6.345,5.734l-4.94,5.383c-0.009,0.566,0.276,0.881,0.824,0.965l6.023-4.045
			C7.42,7.51,6.711,6.645,6.345,5.734L6.345,5.734"/>
		<path fill-rule="evenodd" fill="#666666" d="M6.62,5.043c0.257,0.5,0.584,0.991,0.958,1.44c0.463,0.556,1.003,1.052,1.572,1.43
			c0.86,0.198,1.768,0.021,2.463-0.56c1.226-1.029,1.318-2.937,0.206-4.262c-1.111-1.325-3.006-1.564-4.232-0.536
			C6.852,3.174,6.523,4.108,6.62,5.043z"/>
	</g>
</g>
</svg>
