<svg version="1.2" baseProfile="tiny" xmlns="http://www.w3.org/2000/svg" width="14" height="14" viewBox="0 0 14 14"><path fill="#666" d="M1.901 6.696h9.949v2.951s.137 2.99-1.994 2.99h-5.961s-1.994-.369-1.994-1.973v-3.968z"/><path fill="#fff" d="M11.85 6.696v2.951s.137 2.99-1.994 2.99h-5.961s-1.994-.369-1.994-1.973v-3.968h9.949m0-1h-9.949c-.552 0-1 .448-1 1v3.968c0 1.926 1.839 2.775 2.811 2.957l.183.016h5.961c.781 0 1.465-.283 1.977-.818 1.08-1.131 1.027-3.008 1.018-3.217v-2.906c-.001-.552-.449-1-1.001-1z"/><path fill="#666" d="M7.224 5.601l2.38-3.697-.84-.541-2.729 4.238z"/><path fill="#fff" d="M8.764 1.363l.84.541-2.38 3.697h-1.189l2.729-4.238m0-1l-.211.022c-.26.056-.486.213-.629.436l-2.73 4.239c-.198.307-.212.699-.037 1.02s.512.521.878.521h1.188c.34 0 .657-.173.841-.458l2.381-3.697c.299-.464.164-1.083-.299-1.382l-.84-.541c-.163-.106-.351-.16-.542-.16z"/><path fill="#666" d="M9.471 5.601l2.381-3.697-.84-.541-2.729 4.238z"/><path fill="#fff" d="M11.012 1.363l.84.541-2.381 3.697h-1.188l2.729-4.238m0-1l-.211.022c-.26.056-.486.213-.629.436l-2.73 4.239c-.198.307-.213.699-.037 1.02s.512.521.878.521h1.188c.34 0 .656-.173.842-.458l2.381-3.697c.299-.464.164-1.083-.299-1.382l-.84-.541c-.164-.106-.352-.16-.543-.16zM3.079 7.399h7.593v2.253s.105 2.281-1.521 2.281h-4.55s-1.521-.283-1.521-1.506v-3.028z"/></svg>