<svg version="1.2" baseProfile="tiny" xmlns="http://www.w3.org/2000/svg" width="14" height="14" viewBox="0 0 14 14"><path fill="#fff" d="M13.063 2.837h-1.301c-.322 0-.597.236-.644.557l-.131.896-.133-.898c-.047-.318-.32-.555-.643-.555h-1.297c-.099 0-.19.025-.274.064-.083-.038-.175-.064-.274-.064h-3.414c-.359 0-.65.291-.65.65v.491l-.141-.632c-.066-.298-.33-.509-.635-.509h-.918c-.306 0-.57.213-.636.513l-1.672 7.73c-.041.193.007.393.13.547.123.152.31.242.506.242h.92c.31 0 .576-.219.638-.523l.248-1.232h.659l.265 1.24c.064.301.329.516.636.516h.943c.191 0 .37-.088.493-.234.119.141.291.234.489.234h.867c.359 0 .65-.291.65-.65v-5.775h.519v5.774c0 .359.291.65.65.65h.807c.162 0 .311-.061.425-.158.114.098.264.158.425.158h.835c.162 0 .312-.061.426-.16.114.1.264.16.427.16h.806c.359 0 .65-.291.65-.65v-7.731c-.001-.36-.292-.651-.651-.651zm-8.461 2.492c.102.067.218.116.35.116h.625v4.272l-.975-4.388z"/><g fill="#666"><path d="M5.246 11.219h-.943l-.375-1.756h-1.717l-.354 1.756h-.92l1.672-7.731h.918l1.719 7.731zm-1.596-3.059l-.591-2.869-.58 2.869h1.171zM6.229 11.219v-6.424h-1.276v-1.308h3.414v1.308h-1.271v6.423h-.867zM8.915 11.219v-7.732h1.298l.779 5.274.771-5.274h1.301v7.731h-.806v-6.085l-.853 6.086h-.835l-.85-6.086v6.086h-.805z"/></g></svg>