<svg version="1.2" baseProfile="tiny" xmlns="http://www.w3.org/2000/svg" width="14" height="14" viewBox="0 0 14 14"><g fill="#fff"><path d="M1.636 12.338c-.592 0-1.073-.479-1.073-1.072v-1.027c0-.592.479-1.07 1.069-1.073v-4.274c0-.592.48-1.072 1.073-1.072h8.636c.593 0 1.072.48 1.072 1.072v4.276c.563.033 1.008.499 1.008 1.07v1.027c0 .593-.479 1.072-1.072 1.072h-10.713zM1.636 5.965c-.501 0-.935-.346-1.046-.834-.111-.488.13-.988.581-1.205l5.257-2.527c.164-.1.355-.157.558-.157.18 0 .352.044.504.125l5.324 2.56c.45.217.692.717.58 1.205-.111.488-.545.834-1.045.834h-10.713z"/></g><g fill="#666"><path d="M11.341 10.238v-5.346h-8.636v5.346h-1.069v1.027h10.713v-1.027h-1.008zm-6.492-1.078h-1.055v-3.24h1.055v3.24zm3.208 0h-2.113v-3.24h2.112v3.24zm2.172 0h-1.056v-3.24h1.056v3.24zM12.349 4.892h-10.713l5.362-2.578h-.012z"/></g></svg>