<svg baseProfile="tiny" xmlns="http://www.w3.org/2000/svg" width="14" height="14" viewBox="0 0 14 14"><path fill="#333" d="M12.597 1.403v11.194h-11.194v-11.194h11.194m.3-1.205h-11.794c-.501 0-.903.405-.903.902v11.8c0 .498.404.903.902.903h11.798c.497 0 .902-.404.902-.902v-11.799c0-.5-.406-.904-.904-.904zM4.08 11.51v-8.59h2.784c1.055 0 1.742.044 2.063.13.492.13.904.41 1.236.84s.498.99.498 1.674c0 .527-.095.97-.286 1.33s-.435.64-.73.846-.594.34-.9.407c-.413.082-1.013.124-1.798.124h-1.13v3.24h-1.737zm1.735-7.136v2.438h.95c.683 0 1.14-.045 1.37-.135s.41-.23.542-.422.196-.414.196-.668c0-.313-.092-.57-.275-.773s-.416-.33-.697-.38c-.206-.04-.622-.06-1.247-.06h-.838z"/></svg>