<svg baseProfile="tiny" xmlns="http://www.w3.org/2000/svg" width="15" height="15" viewBox="0 0 15 15"><g fill="#036EFF"><path d="M8.98.913v-.27c0-.27-.206-.54-.54-.514h-1.96c-.282 0-.488.22-.488.465v.317c-2.986.662-5.252 3.209-5.252 6.244 0 2.325 1.313 4.357 3.27 5.46l1.16-1.372c-1.545-.783-2.575-2.325-2.575-4.088 0-2.545 2.188-4.65 4.867-4.65h.05c2.705 0 4.92 2.08 4.92 4.65 0 1.787-1.056 3.33-2.602 4.113l1.134 1.395c1.982-1.126 3.296-3.183 3.296-5.508 0-3.06-2.266-5.605-5.28-6.242zM8.234 12.175v-2.963c.18-.637.875-.955 1.854-1.126v-1.224c0-.612-.488-1.028-1.287-1.053h-2.703c-.98.17-1.236.538-1.21 1.027v1.126c1.26.342 1.88.832 1.802 1.42v2.937c0 .856-1.855 1.174-4.018 1.42v.954l4.79.024 4.79.024v-.98c-2.396-.217-4.044-.658-4.018-1.587z"/></g></svg>