<svg version="1.2" baseProfile="tiny" xmlns="http://www.w3.org/2000/svg" width="14" height="14" viewBox="0 0 14 14"><path fill-rule="evenodd" fill="#fff" d="M10.372 13.843c-1.896 0-3.624-1.739-3.624-3.648 0-.16.019-.324.055-.491l-2.503-2.505c-.17.038-.338.056-.503.056-1.886 0-3.624-1.732-3.647-3.635 0-.431.218-.648.448-.877l.081-.081c.186-.189.441-.295.707-.296h.001c.265 0 .52.105.707.292l.387.391.31.313.097-.001c.157-.075.428-.35.478-.491l-.011-.069-.365-.362-.339-.336c-.389-.389-.391-1.019-.004-1.41.33-.333.529-.535.952-.535 1.921 0 3.647 1.738 3.647 3.646 0 .169-.021.343-.061.52l2.485 2.484c.179-.041.355-.062.529-.062 1.885 0 3.624 1.732 3.648 3.634 0 .431-.22.65-.433.862l-.096.096c-.187.189-.441.296-.708.297h-.003c-.266 0-.52-.105-.707-.293l-.388-.392-.309-.313-.097.001c-.157.075-.429.35-.478.49l.011.069.368.366.334.332c.388.388.391 1.014.008 1.406-.329.337-.527.54-.955.54h-.022z"/><path fill-rule="evenodd" fill="#666" d="M10.199 7.746c-.251 0-.521.082-.787.219l-3.382-3.383c.136-.265.217-.532.217-.778 0-1.345-1.279-2.646-2.622-2.647h-.025l-.241.238c1.083 1.085.994.909.994 1.574 0 .54-.864 1.392-1.392 1.392l-.281.003c-.367 0-.373-.078-1.293-.998l-.238.241c.017 1.354 1.294 2.647 2.647 2.647.245 0 .507-.078.766-.208l3.394 3.394c-.129.258-.207.518-.207.754 0 1.347 1.28 2.648 2.624 2.648h.024l.24-.239c-1.083-1.083-.994-.908-.994-1.572 0-.54.864-1.392 1.392-1.392l.281-.004c.366 0 .371.077 1.293.999l.239-.242c-.018-1.352-1.296-2.646-2.649-2.646z"/></svg>