<svg baseProfile="tiny" xmlns="http://www.w3.org/2000/svg" width="15" height="14" viewBox="0 0 15 14"><path fill-rule="evenodd" fill="#FCCF00" d="M2.576 12.475l-2.105.002s.033-3.525.853-6.337c.82-2.813 2.044-4.604 3.528-4.6 1.577.002 2.632 3.24 2.632 3.24s1.03-3.29 2.802-3.256c1.937.037 3.11 3.618 3.632 5.66.523 2.04.613 5.29.613 5.29l-2.11-.015s.048-2.056-.39-4.68c-.437-2.625-1.264-4.933-1.8-4.95-.59-.016-1.258 3.49-1.39 5.032-.113 1.318-.213 3.314-.23 3.99l-2.226-.01s-.101-3.541-.365-5.191c-.262-1.65-.846-3.818-1.266-3.82-.42-.003-1.36 2.11-1.792 4.814-.443 3.106-.36 4.83-.386 4.83z"/></svg>