<svg version="1.2" baseProfile="tiny" xmlns="http://www.w3.org/2000/svg" width="14" height="14" viewBox="0 0 14 14"><path stroke="#333" stroke-linejoin="round" stroke-miterlimit="10" fill="none" d="M1.528 3.613v7.897h.958v.997h2.972v-.997l2.013-.06v1.057h3.07v-6.98l.938-.018v-.96l.997-.038V2.538L9.523 2.44l-.04 1.036zm7.076 5.903h-6.82"/><path fill="#333" d="M4.128 5.777c0 .176-.143.318-.318.318h-.497c-.176 0-.318-.143-.318-.318V5.28c0-.176.143-.318.318-.318h.497c.176 0 .318.143.318.318v.497zm1.955 0c0 .176-.143.318-.318.318h-.497c-.176 0-.318-.143-.318-.318V5.28c0-.176.143-.318.318-.318h.497c.176 0 .318.143.318.318v.497zm1.993 0c0 .176-.143.318-.318.318H7.26c-.175 0-.317-.143-.317-.318V5.28c0-.176.143-.318.318-.318h.498c.176 0 .318.143.318.318v.497zM5.164 7.722c0 .176-.143.318-.318.318H4.35c-.177 0-.32-.143-.32-.318v-.497c0-.176.144-.318.32-.318h.496c.176 0 .318.143.318.318v.497zm1.955 0c0 .176-.144.318-.32.318h-.496c-.176 0-.318-.143-.318-.318v-.497c0-.176.143-.318.318-.318H6.8c.176 0 .318.143.318.318v.497zm1.992 0c0 .176-.143.318-.318.318h-.497c-.176 0-.318-.143-.318-.318v-.497c0-.176.14-.318.317-.318h.497c.176 0 .318.143.318.318v.497z"/></svg>