<svg version="1.2" baseProfile="tiny" xmlns="http://www.w3.org/2000/svg" width="14" height="14" viewBox="0 0 14 14"><path fill="#fff" d="M4.966 13.745c-.514 0-.986-.202-1.327-.568-.339-.364-.505-.845-.47-1.354l.272-4.48c-1.331-.402-2.076-1.396-2.076-2.818 0-.739.47-2.874.564-3.294.079-.485.556-.888 1.1-.888h.194c.285 0 .545.111.739.292.221-.183.503-.292.811-.292h.387c.308 0 .591.109.811.292.194-.182.453-.293.739-.293h.193c.556 0 1.022.396 1.109.941.084.367.555 2.502.555 3.241 0 1.423-.744 2.417-2.076 2.817l.273 4.491c.035.5-.132.98-.471 1.345-.341.366-.813.568-1.327.568z"/><path fill="#666" d="M6.903 1.231h-.193c-.097 0-.193.078-.193.194v2.906c0 .214-.232.446-.582.388-.213.058-.446-.174-.388-.388v-2.712c0-.213-.174-.388-.387-.388h-.388c-.213 0-.387.175-.387.388v2.712c.058.214-.175.446-.387.388-.35.058-.581-.174-.581-.388v-2.906c0-.096-.078-.194-.194-.194h-.194c-.097 0-.213.078-.232.194 0 0-.542 2.422-.542 3.1 0 1.406.913 1.971 2.122 2.1l-.319 5.262c-.039.543.368.969.91.969s.949-.426.911-.969l-.32-5.263c1.209-.128 2.122-.693 2.122-2.099 0-.678-.543-3.1-.543-3.1-.021-.116-.118-.194-.235-.194z"/><path fill="#fff" d="M10.004 13.551c-.934 0-1.665-.73-1.665-1.664v-10.074c0-1 .646-1.454 1.244-1.454.434 0 .858.219 1.264.652l.174.173c.71.709 1.291 1.877 1.415 2.84l.014.084c.104.724.187 1.902.187 2.644v1.066c0 .739-.389 1.405-.968 1.768v2.3c-.086.969-.816 1.665-1.665 1.665z"/><path fill="#666" d="M11.572 4.253l-.019-.116c-.097-.756-.581-1.744-1.163-2.324l-.194-.194c-.561-.6-.968-.426-.968.194v10.073c0 .426.33.775.776.775.387 0 .735-.35.774-.775v-2.906c.543-.058.968-.6.968-1.162v-1.066c0-.696-.077-1.82-.174-2.499z"/></svg>