<svg version="1.2" baseProfile="tiny" xmlns="http://www.w3.org/2000/svg" width="14" height="14" viewBox="0 0 14 14"><g fill="#fff"><path d="M8.206 6.071c-.113 0-.227-.021-.335-.067l-.127-.053c-.145-.06-.271-.159-.365-.285l-.211-.286c-.111-.149-.171-.331-.171-.518v-.102c0-.19.063-.376.178-.528l.886-1.16.588-.685c.168-.197.413-.305.663-.305.101 0 .202.018.301.054.342.125.569.452.569.816v1.082c0 .142-.035.282-.103.408l-.096.166-.052.074-.174.181-.068.053-.114.128-.524.503-.177.212c-.17.202-.416.312-.668.312zM5.81 13.812c-.322 0-.628-.119-.867-.338-.229-.188-.46-.516-.49-.933-.02-.291.049-.729.5-1.158l1.554-1.358.012-1.668-1.054-2.402-.044-.127c-.148-.563.002-1.52.983-1.973l1.072-1.268-3.838-.005-.26.256-.213.154c-.082.041-.297.137-.563.137-.583 0-1.026-.442-1.054-1.052-.008-.171.035-.341.123-.488l.049-.081.161-.196.536-.487c.16-.145.369-.226.585-.226h6.192l.061-.061c.033-.042.331-.349.809-.349.206 0 .724.069 1.066.714.205.32.239.948-.22 1.502l-.069.071-.201 2.259c-.019.214-.116.413-.273.559l-.83.775c.69 1.305 2.31 4.389 2.818 5.543l.044.126c.031.115.167.719-.175 1.24-.192.291-.493.491-.855.567-.099.029-.205.046-.313.046-.319 0-.792-.134-1.226-.769l-.067-.116-.663-1.388-.082.141-.11.137c-.104.104-.995 1.003-1.736 1.479l-.428.396c-.138.107-.48.341-.934.341z"/><circle cx="5.974" cy="3.777" r="1.654"/></g><path d="M9.091 4.279l.131-.102.053-.074.037-.068v-1.083l-.56.649-.885 1.159v.102l.211.286.128.053.208-.249.511-.486.166-.187z" fill="none"/><path fill="#666" d="M11.558 11.963c-.632-1.438-3.103-6.074-3.103-6.074l1.317-1.23.229-2.569.239-.24c.262-.316.12-.539.12-.539-.239-.452-.49-.158-.49-.158l-.315.316h-6.553l-.536.487-.049.082c.016.351.351.18.351.18l.514-.506 6.066.008-2.408 2.848-.065.033c-.8.294-.612 1.004-.612 1.004l1.127 2.572-.016 2.245-1.821 1.592c-.498.475-.041.801-.041.801.285.286.661 0 .661 0l.465-.433c.686-.417 1.648-1.396 1.648-1.396.164-.253.131-.4.131-.4l.082-2.547 2.049 4.294c.352.515.597.371.597.371.587-.088.413-.741.413-.741zm-3.144-7.011l-.208.249-.128-.053-.211-.286v-.102l.885-1.159.56-.649v1.082l-.038.069-.052.074-.131.102-.166.187-.511.486z"/><circle fill="#666" cx="5.974" cy="3.777" r=".784"/></svg>