<svg version="1.2" baseProfile="tiny" xmlns="http://www.w3.org/2000/svg" width="16" height="14" viewBox="0 0 16 14"><g fill="#fff"><path d="M4.817 3.667c.118-.256.188-.538.188-.837 0-1.112-.905-2.017-2.017-2.017s-2.017.904-2.017 2.017c0 .299.07.581.188.837-.568.357-.95.985-.95 1.705v2.795c0 .471.325.865.762.972v2.843c0 .553.448 1 1 1h2.034c.552 0 1-.447 1-1v-2.844c.438-.106.762-.501.762-.972v-2.795c0-.719-.381-1.348-.95-1.704zM15.123 8.587l-1.288-3.861c-.081-.246-.217-.457-.377-.647.277-.345.45-.777.45-1.253 0-1.11-.902-2.013-2.012-2.013s-2.012.902-2.012 2.012c0 .476.173.907.449 1.252-.157.189-.292.4-.372.645l-.961 2.874v-5.605c0-.552-.448-1-1-1h-.976c-.552 0-1 .448-1 1v10.027c0 .553.448 1 1 1h.976c.552 0 1-.447 1-1v-2.332c.175.138.39.218.617.218h.519v2.038c0 .553.447 1 1 1h1.52c.553 0 1-.447 1-1v-2.039h.52c.321 0 .623-.154.812-.415.186-.26.238-.596.135-.901z"/></g><g fill="#666"><path d="M7.024 1.991h.976v10.027h-.976z"/><g fill-rule="evenodd"><path d="M1.971 11.98v-3.814h-.763v-2.795c0-.559.458-1.017 1.017-1.017h1.525c.56 0 1.017.458 1.017 1.017v2.795h-.762v3.814h-2.034zM2.988 3.846c.562 0 1.017-.455 1.017-1.016 0-.562-.455-1.017-1.017-1.017s-1.017.455-1.017 1.017c0 .561.455 1.016 1.017 1.016z"/></g><g fill-rule="evenodd"><path d="M12.655 11.941v-3.038h1.52l-1.289-3.865c-.137-.415-.524-.694-.959-.694h-.06c-.436 0-.822.279-.958.694l-1.292 3.865h1.519v3.038h1.519zM11.896 3.838c.559 0 1.012-.453 1.012-1.013s-.453-1.013-1.012-1.013c-.56 0-1.013.453-1.013 1.013s.454 1.013 1.013 1.013z"/></g></g></svg>