<svg version="1.2" baseProfile="tiny" xmlns="http://www.w3.org/2000/svg" width="14" height="14" viewBox="0 0 14 14"><linearGradient id="a" gradientUnits="userSpaceOnUse" x1="7" y1="1.403" x2="7" y2="12.597"><stop offset="0" stop-color="#fff"/><stop offset=".219" stop-color="#FCFEFF" stop-opacity=".847"/><stop offset=".374" stop-color="#F3FBFF" stop-opacity=".738"/><stop offset=".509" stop-color="#E3F7FF" stop-opacity=".644"/><stop offset=".632" stop-color="#CDF0FF" stop-opacity=".557"/><stop offset=".748" stop-color="#B1E8FF" stop-opacity=".476"/><stop offset=".858" stop-color="#8EDEFF" stop-opacity=".399"/><stop offset=".962" stop-color="#65D2FF" stop-opacity=".327"/><stop offset="1" stop-color="#54CDFF" stop-opacity=".3"/></linearGradient><path fill="url(#a)" d="M1.945 12.597c-.299 0-.542-.243-.542-.542v-10.11c0-.299.243-.542.542-.542h10.109c.299 0 .542.243.542.542v10.109c0 .299-.243.542-.542.542h-10.109z"/><path fill="#75AFEF" d="M12.055 1.791c.085 0 .154.069.154.155v10.109c0 .085-.069.154-.154.154h-10.11c-.085 0-.155-.069-.155-.154v-10.11c0-.085.069-.155.155-.155h10.11m0-.774h-10.11c-.514 0-.93.416-.93.93v10.109c0 .514.416.93.93.93h10.109c.514 0 .93-.416.93-.93v-10.11c0-.513-.416-.929-.929-.929z"/><path fill="#006CFF" d="M4.437 10.678v-.746h5.125v.746h1.393l.008-.043v-6.697c0-.34-.275-.616-.615-.616h-6.696c-.34 0-.616.275-.616.616v6.696l.009.043h1.392zm5.573-1.703h-2v-.959h2v.959zm-6.01-4.667h5.959v2.979h-5.959v-2.979zm-.01 3.708h2v.959h-2v-.959z"/></svg>