<svg version="1.2" baseProfile="tiny" xmlns="http://www.w3.org/2000/svg" width="14" height="14" viewBox="0 0 14 14"><path fill="#fff" d="M4.754 13.752c-.282 0-.547-.136-.712-.364-.165-.229-.209-.523-.12-.791l.132-.395-.014-.005c-.212-.089-.405-.198-.57-.306h-.028c-1 0-1.813-.809-1.813-1.804l.015-.229c-.267-.495-.469-1.023-.597-1.562-.555-.309-.915-.89-.915-1.554 0-.697.397-1.302.99-1.599.133-.478.318-.931.556-1.353-.032-.13-.049-.262-.049-.394 0-.996.813-1.806 1.813-1.806.127 0 .252.014.376.043.557-.313 1.171-.533 1.835-.658.316-.528.888-.87 1.534-.87.692 0 1.295.388 1.597.971.493.13.959.317 1.391.56.125-.03.253-.045.382-.045 1 0 1.813.81 1.813 1.806 0 .133-.017.266-.05.397.237.42.423.872.555 1.349.594.296.991.901.994 1.598 0 .666-.359 1.248-.914 1.557-.128.53-.33 1.042-.604 1.53l.021.262c0 .994-.813 1.804-1.813 1.804l-.084-.003c-.146.101-.287.188-.431.268l-.119.054.129.389c.088.268.044.562-.122.79-.164.228-.429.362-.71.362h-4.468zm2.62-7.329c.378 0 .714.243.833.601l.113.344c.032-.144.05-.296.051-.444-.002-.677-.682-1.348-1.373-1.35-.687.002-1.366.673-1.367 1.354 0 .133.021.274.056.414l.107-.321c.12-.357.455-.598.832-.598h.748z"/><path fill="#666" d="M8.873 9.528c.766-.692 1.109-1.495 1.123-2.601.019-1.691-1.294-2.973-2.996-2.973-1.701 0-2.994 1.28-2.995 2.973 0 1.032.313 1.864 1.124 2.601l.374-.742c-.443-.389-.749-1.225-.749-1.859.001-1.172 1.069-2.227 2.246-2.23 1.179.003 2.245 1.058 2.248 2.23-.003.674-.258 1.47-.749 1.859l.374.742zm-2.248-2.228l-1.872 5.576h4.467l-1.846-5.576h-.749zm5.511-1.471c-.135-.711-.402-1.374-.795-1.955.088-.142.152-.3.152-.478 0-.513-.419-.93-.937-.93-.175 0-.329.062-.469.145-.56-.379-1.221-.653-1.981-.788-.046-.47-.433-.842-.919-.842-.465 0-.835.343-.906.786-.927.102-1.721.399-2.372.841-.14-.082-.293-.142-.466-.142-.517 0-.936.417-.936.93 0 .178.064.335.15.475-.392.581-.66 1.246-.795 1.958-.477.044-.853.429-.853.913 0 .467.352.836.804.902.108.734.381 1.458.767 2.084-.047.111-.073.231-.073.36 0 .511.418.927.936.927l.24-.047c.223.168.451.317.697.421l.375-.744c-.159-.046-.306-.117-.448-.196.047-.111.073-.233.073-.36 0-.514-.418-.93-.936-.93-.11 0-.212.026-.31.062-.315-.557-.516-1.191-.591-1.779.203-.171.338-.416.338-.7 0-.263-.112-.498-.289-.667.121-.624.371-1.232.748-1.769l.104.021c.518 0 .936-.416.936-.929l-.024-.12c.577-.412 1.284-.697 2.121-.782.172.206.42.343.71.343.269 0 .506-.115.677-.293.69.119 1.287.373 1.782.727l-.024.125c0 .513.42.929.937.929l.107-.021c.375.537.625 1.146.744 1.769-.176.169-.289.404-.289.668 0 .279.13.521.326.691-.104.599-.379 1.208-.743 1.754l-.145-.03c-.518 0-.937.417-.937.93l.052.255c-.14.114-.283.217-.426.303l.373.743c.227-.125.437-.271.64-.431.095.031.191.058.297.058.518 0 .937-.415.937-.927 0-.14-.035-.27-.09-.39.396-.612.676-1.311.786-2.054.451-.066.802-.437.802-.902-.003-.486-.379-.871-.857-.914z"/></svg>